# xmcd CD database file
#
# Track frame offsets:
#	180
#	12836
#	38220
#	52488
#	65388
#	79948
#	99057
#	111309
#	137953
#	151042
#	171158
#	183338
#
# Disc length: 2607 seconds
#
# Revision: 0
# Processed by: cddbd v1.5.2PL0 Copyright (c) Steve Scherf et al.
# Submitted via: CDex 1.70beta2
#
DISCID=9b0a2d0c
DTITLE=Charlie Parker - Great Master [CD9 of 10)
DYEAR=1900
DGENRE=Jazz
TTITLE0=Blues For Alice (1951)
TTITLE1=Confirmation (1947)
TTITLE2=Dizzy's Boogie (1945)
TTITLE3=Fiesta (1951)
TTITLE4=I Didn't Know What Time It Was (1949)
TTITLE5=Ko Ko (1947)
TTITLE6=Marmaduke (1948)
TTITLE7=No Noise (Part 1 and 2) (1948)
TTITLE8=Quasimodo (1947)
TTITLE9=Slam Slam Blues (1945)
TTITLE10=Swingmatism (1941)
TTITLE11=Tico - Tico (1951)
EXTD=
EXTT0=
EXTT1=
EXTT2=
EXTT3=
EXTT4=
EXTT5=
EXTT6=
EXTT7=
EXTT8=
EXTT9=
EXTT10=
EXTT11=
PLAYORDER=
